Coordinates
version=1
nRows=16
nColumns=36
inDegrees=yes

Units are S.I. units (second, meters, Newtons, ...)
If the header above contains a line with 'inDegrees', this indicates whether rotational values are in degrees (yes) or radians (no).

endheader
time	pelvis_tilt	pelvis_list	pelvis_rotation	pelvis_tx	pelvis_ty	pelvis_tz	hip_flexion_r	hip_adduction_r	hip_rotation_r	knee_angle_r	knee_angle_r_beta	ankle_angle_r	subtalar_angle_r	mtp_angle_r	hip_flexion_l	hip_adduction_l	hip_rotation_l	knee_angle_l	knee_angle_l_beta	ankle_angle_l	subtalar_angle_l	mtp_angle_l	lumbar_extension	lumbar_bending	lumbar_rotation	arm_flex_r	arm_add_r	arm_rot_r	elbow_flex_r	pro_sup_r	arm_flex_l	arm_add_l	arm_rot_l	elbow_flex_l	pro_sup_l
      3.71666670	    -10.08098721	      4.43024416	     -2.26150652	      0.35751831	      0.83577673	     -0.07381355	     39.30654193	     -6.31699933	      1.77017147	     22.48315934	      0.39240516	    -14.60481402	    -21.39822085	     -7.49999987	     39.87247131	     -2.89940057	     -7.46103303	     27.57621477	      0.48129574	    -14.35240088	     -8.48460977	     -7.49999987	    -25.71190434	     -1.54803881	     -2.51164014	     50.29282870	    -15.24536458	     20.07780641	    109.25247536	     99.92618714	     51.65961603	    -14.14413397	     19.91050820	    118.69100677	     84.76624608
      3.73333330	    -11.54895216	      4.17022261	     -2.63970866	      0.36335750	      0.79944456	     -0.07248859	     48.11022887	     -4.90132402	      5.40534044	     38.53373803	      0.67254060	     -2.33580331	    -26.64386691	     -7.49999987	     46.72447338	     -4.29917383	     -7.15694120	     40.41508756	      0.70537635	     -2.15701039	    -11.13068432	     -7.49999987	    -25.19396357	     -1.00668952	     -2.41289503	     52.85082678	    -14.21367295	     21.02269907	    109.34631233	    100.34265057	     51.86459885	    -14.75653036	     18.65494493	    121.16728284	     85.52768390
      3.75000000	    -12.51259401	      4.21559698	     -1.99945807	      0.37062468	      0.77103439	     -0.07615404	     56.50556775	     -4.70420641	      6.81243463	     53.77920270	      0.93862416	      9.27571856	    -27.04252613	     -7.49999987	     54.48194613	     -4.89127356	     -7.02629298	     54.40400755	      0.94952906	      7.61637019	    -12.75564303	     -7.49999987	    -25.75844073	     -0.80474274	     -2.56310127	     55.07920692	    -14.16700248	     20.68735154	    110.13659029	     98.97523645	     54.92914897	    -14.09683827	     19.47587890	    121.02636390	     85.35517604
      3.76666670	    -13.21009107	      4.45621104	     -0.97633983	      0.36981706	      0.75939323	     -0.07975687	     62.00174550	     -4.86000138	      7.91988677	     63.19124698	      1.10289532	     16.47373424	    -26.40982474	     -7.49999987	     60.30549788	     -4.00877574	     -5.74187888	     64.29231295	      1.12211254	     12.48053317	    -15.05488086	     -7.49999987	    -28.08736263	     -0.80639499	     -2.60226699	     57.25581434	    -14.29416421	     19.51252474	    110.66175234	    101.46988557	     58.74348713	    -12.55676235	     20.47786873	    119.49079068	     87.22797735
      3.78333330	    -13.69343823	      4.66298382	     -0.46836000	      0.37543702	      0.73640852	     -0.07400962	     66.24370745	     -4.33641622	      8.98105390	     70.25775979	      1.22622923	     21.35782662	    -25.90566924	     -7.49999987	     64.50756578	     -3.64362890	     -4.75853009	     71.11017829	      1.24110674	     15.56385099	    -16.35173975	     -7.49999987	    -30.86723673	     -1.04530469	     -3.13420391	     60.39269275	    -12.75896696	     19.34656790	    110.46824133	    100.02837740	     63.17994257	    -11.68183655	     21.01034569	    118.53454413	     86.05764704
      3.80000000	    -15.57954430	      4.90003098	     -0.04996342	      0.37564148	      0.71596069	     -0.07254896	     70.66180025	     -3.82166581	      9.67780314	     74.44785216	      1.29936014	     24.46499760	    -24.90967143	     -7.49999987	     69.33840872	     -3.50559785	     -4.17527180	     75.73478475	      1.32182135	     17.29766088	    -16.99781773	     -7.49999987	    -32.39869663	     -1.33732220	     -3.29890059	     63.23129453	    -11.79172044	     18.98812519	    111.25785586	     99.62513667	     67.33483527	    -10.29799425	     22.07305391	    117.02582942	     85.67359895
      3.81666670	    -16.85356463	      5.44824396	      0.29987338	      0.38234058	      0.69929193	     -0.07390458	     73.70929796	     -3.80477631	     10.43450962	     77.41744210	      1.35118926	     27.07485729	    -23.71724044	     -7.49999987	     72.76691167	     -3.25264143	     -4.29308810	     78.96730454	      1.37823947	     17.97686974	    -17.74602694	     -7.49999987	    -34.11236036	     -2.23582455	     -2.79149955	     65.83390984	    -11.95422211	     17.55942865	    112.57390966	    100.90012142	     71.11973091	     -7.54707241	     23.55464890	    114.36896255	     87.95228247
      3.83333330	    -19.11952567	      5.91693644	      0.28239593	      0.38460482	      0.67813739	     -0.07434111	     77.74648467	     -3.61738989	     11.15920966	     80.08764489	      1.39779309	     28.99656341	    -22.65042905	     -7.49999987	     76.98661675	     -3.61320586	     -4.52545728	     82.05992877	      1.43221594	     19.02947394	    -17.28696058	     -7.49999987	    -34.73424919	     -2.63722181	     -2.69838636	     69.65465174	    -11.24859362	     17.96690258	    113.34670032	     99.73003767	     73.89725548	     -5.98539461	     24.01162395	    114.52065408	     87.65587987
      3.85000000	    -21.10052338	      6.37081606	      0.23947568	      0.38580350	      0.65612194	     -0.07273960	     82.18943043	     -3.41436725	     11.81882447	     83.60349436	      1.45915624	     30.95037269	    -21.08935501	     -7.49999987	     81.16233024	     -4.27606567	     -4.81595837	     85.55958753	      1.49329651	     20.75270539	    -15.91269977	     -7.49999987	    -34.84693034	     -3.15417105	     -2.40380459	     72.37643476	    -10.83119673	     17.85808189	    113.91036876	    101.22415811	     76.24001409	     -4.52899481	     24.31967665	    114.45214129	     89.17673726
      3.86666670	    -23.50019792	      6.76519879	      0.51286833	      0.39548000	      0.64167999	     -0.07331070	     86.23075000	     -3.58812658	     12.19479479	     86.62819794	      1.51194728	     32.45375782	    -20.11708821	     -7.49999987	     84.75644635	     -4.55608959	     -4.90772421	     88.24789908	      1.54021640	     22.09248446	    -14.61615815	     -7.49999987	    -34.40962295	     -3.44208622	     -2.28078475	     74.44874961	    -10.37332108	     18.02073042	    115.25031481	    101.36844479	     77.60597363	     -3.28405986	     24.82883374	    115.49360460	     89.69211838
      3.88333330	    -26.10740778	      6.96878729	      1.12058445	      0.39616645	      0.62948182	     -0.06765761	     89.98654547	     -3.64103753	     12.34426731	     88.80382477	      1.54991913	     33.79243025	    -19.55803981	     -7.49999987	     88.30911643	     -4.91235730	     -4.95174552	     90.23895631	      1.57496690	     23.39916395	    -13.14348468	     -7.49999987	    -33.92071287	     -3.74662879	     -2.64888835	     76.28292562	     -9.21200445	     17.93528500	    117.29804416	    101.72714876	     79.06438027	     -2.30102826	     25.52616531	    116.82400646	     90.55815972
      3.90000000	    -28.61623961	      7.05464756	      1.37404308	      0.40094457	      0.62644681	     -0.06515751	     92.88738966	     -3.41134463	     12.24605194	     89.80816764	      1.56744822	     34.18843520	    -19.24526914	     -7.49999987	     90.66994793	     -5.43950837	     -4.91529344	     90.66203215	      1.58235097	     23.92925569	    -11.99136145	     -7.49999987	    -33.55302939	     -4.04022373	     -2.76064850	     77.18057531	     -8.10600291	     17.88242146	    119.08088932	    102.09210003	     80.61412228	     -1.66739687	     26.31783171	    118.69248072	     91.63349144
      3.91666670	    -30.83413312	      6.96374934	      1.88691141	      0.38786870	      0.61432254	     -0.06224193	     96.24838973	     -3.28853896	     12.03065774	     90.83071566	      1.58529505	     34.14842933	    -19.38009066	     -7.49999987	     93.78137086	     -5.86480817	     -4.88922515	     91.37039703	      1.59471427	     24.15524558	    -11.52986185	     -7.49999987	    -33.89043212	     -4.24321556	     -3.40127903	     80.25123377	     -7.46355971	     17.74118260	    120.42386053	    103.27921947	     83.57642609	     -1.00586460	     26.35309462	    119.56678327	     92.76057171
      3.93333330	    -32.99362160	      6.35781442	      2.32273935	      0.36918748	      0.59995091	     -0.05498965	    100.17005846	     -2.60958287	     11.35516455	     91.58119319	      1.59839335	     32.98734205	    -20.16469167	     -7.49999987	     97.92267196	     -6.63781959	     -4.22260378	     92.27637734	      1.61052661	     23.70599316	    -10.60500756	     -7.49999987	    -34.50757558	     -4.55272779	     -3.34100037	     84.03709471	     -7.59965647	     17.09926484	    121.71876604	    105.27342815	     89.35100816	     -0.50569377	     27.76606187	    119.10287926	     98.69896115
      3.95000000	    -34.52402432	      5.66848411	      2.68891201	      0.36885574	      0.58652953	     -0.05334006	    103.73311964	     -2.10802793	     10.57258421	     93.12545440	      1.62534580	     32.52911256	    -20.72195930	     -7.49999987	    101.75418535	     -7.27996320	     -3.33734652	     93.80581431	      1.63722032	     23.16975199	    -10.19128395	     -7.49999987	    -35.07657662	     -4.29424228	     -3.72328397	     88.32332787	     -6.94053228	     17.22152018	    121.66500881	    105.23648796	     93.74267820	     -1.00454140	     27.77081435	    118.53649298	     98.95305829
      3.96666670	    -36.17433703	      5.62492186	      2.55742301	      0.36777831	      0.57227658	     -0.05671412	    107.18430782	     -1.46329283	     10.39395709	     94.50093203	      1.64935241	     32.13782029	    -20.85106436	     -7.49999987	    105.28471727	     -7.86864037	     -2.94154483	     95.40502389	      1.66513179	     23.19076606	    -10.08666315	     -7.49999987	    -34.99735111	     -4.68462208	     -3.70374312	     91.76404390	     -6.54157288	     16.92106954	    121.27080710	    105.42406516	     97.04478294	     -0.85385878	     27.10011950	    118.44750406	     99.15785189
